<mxfile host="app.diagrams.net" modified="2023-02-07T07:28:28.628Z" agent="5.0 (Windows NT 10.0; WOW64) AppleWebKit/537.36 (KHTML, like Gecko) Chrome/83.0.4103.97 Safari/537.36" version="20.8.1" etag="dCHvGj8MXJiCajbnw76s" type="github">
  <diagram id="jZ-XBCnEFU2WYrnyTShl" name="第 1 页">
    <mxGraphModel dx="958" dy="471" grid="1" gridSize="10" guides="1" tooltips="1" connect="1" arrows="1" fold="1" page="1" pageScale="1" pageWidth="827" pageHeight="1169" math="0" shadow="0">
      <root>
        <mxCell id="0" />
        <mxCell id="1" parent="0" />
        <mxCell id="2izKIzFamONQcPFTqZWw-58" style="edgeStyle=orthogonalEdgeStyle;rounded=0;sketch=0;orthogonalLoop=1;jettySize=auto;html=1;exitX=0;exitY=0.75;exitDx=0;exitDy=0;entryX=0;entryY=0.5;entryDx=0;entryDy=0;shadow=0;strokeColor=#FF0818;fontSize=6;fontColor=#050505;" edge="1" parent="1" source="2izKIzFamONQcPFTqZWw-2" target="2izKIzFamONQcPFTqZWw-57">
          <mxGeometry x="0.0364" y="-30" relative="1" as="geometry">
            <mxPoint as="offset" />
          </mxGeometry>
        </mxCell>
        <mxCell id="2izKIzFamONQcPFTqZWw-2" value="" style="swimlane;startSize=0;" vertex="1" parent="1">
          <mxGeometry x="170" y="10" width="720" height="70" as="geometry" />
        </mxCell>
        <mxCell id="2izKIzFamONQcPFTqZWw-3" value="KA代客下单" style="rounded=0;whiteSpace=wrap;html=1;fillColor=#d5e8d4;strokeColor=#82b366;" vertex="1" parent="2izKIzFamONQcPFTqZWw-2">
          <mxGeometry x="10" y="20" width="100" height="30" as="geometry" />
        </mxCell>
        <mxCell id="2izKIzFamONQcPFTqZWw-19" value="商管下单" style="rounded=0;whiteSpace=wrap;html=1;fillColor=#d5e8d4;strokeColor=#82b366;" vertex="1" parent="2izKIzFamONQcPFTqZWw-2">
          <mxGeometry x="234" y="20" width="100" height="30" as="geometry" />
        </mxCell>
        <mxCell id="2izKIzFamONQcPFTqZWw-20" value="Boss补录订单" style="rounded=0;whiteSpace=wrap;html=1;fillColor=#e1d5e7;strokeColor=#9673a6;" vertex="1" parent="2izKIzFamONQcPFTqZWw-2">
          <mxGeometry x="470" y="20" width="100" height="30" as="geometry" />
        </mxCell>
        <mxCell id="2izKIzFamONQcPFTqZWw-21" value="Boss调整订单" style="rounded=0;whiteSpace=wrap;html=1;fillColor=#d5e8d4;strokeColor=#82b366;" vertex="1" parent="2izKIzFamONQcPFTqZWw-2">
          <mxGeometry x="120" y="20" width="100" height="30" as="geometry" />
        </mxCell>
        <mxCell id="2izKIzFamONQcPFTqZWw-22" value="渠道代客下单" style="rounded=0;whiteSpace=wrap;html=1;fillColor=#e1d5e7;strokeColor=#9673a6;" vertex="1" parent="2izKIzFamONQcPFTqZWw-2">
          <mxGeometry x="590" y="20" width="100" height="30" as="geometry" />
        </mxCell>
        <mxCell id="2izKIzFamONQcPFTqZWw-18" value="E助手代客下单" style="rounded=0;whiteSpace=wrap;html=1;fillColor=#e51400;strokeColor=#B20000;fontColor=#ffffff;" vertex="1" parent="2izKIzFamONQcPFTqZWw-2">
          <mxGeometry x="350" y="20" width="100" height="30" as="geometry" />
        </mxCell>
        <mxCell id="2izKIzFamONQcPFTqZWw-23" value="&lt;h1&gt;&lt;span style=&quot;font-size: 6px; font-weight: 400;&quot;&gt;&lt;font color=&quot;#00ff00&quot;&gt;绿色&lt;/font&gt;：已实现&lt;br&gt;&lt;font color=&quot;#ff33ff&quot;&gt;紫色&lt;/font&gt;：待完成&lt;br&gt;&lt;font color=&quot;#ff0829&quot;&gt;红色&lt;/font&gt;：本期&lt;/span&gt;&lt;/h1&gt;" style="text;html=1;strokeColor=none;fillColor=none;spacing=5;spacingTop=-20;whiteSpace=wrap;overflow=hidden;rounded=0;" vertex="1" parent="1">
          <mxGeometry x="60" y="20" width="100" height="90" as="geometry" />
        </mxCell>
        <mxCell id="2izKIzFamONQcPFTqZWw-39" style="edgeStyle=none;rounded=0;sketch=0;orthogonalLoop=1;jettySize=auto;html=1;exitX=0.5;exitY=1;exitDx=0;exitDy=0;entryX=0.5;entryY=0;entryDx=0;entryDy=0;shadow=0;fontSize=6;fontColor=#FF0829;" edge="1" parent="1" source="2izKIzFamONQcPFTqZWw-10" target="2izKIzFamONQcPFTqZWw-17">
          <mxGeometry relative="1" as="geometry" />
        </mxCell>
        <mxCell id="2izKIzFamONQcPFTqZWw-44" style="edgeStyle=none;rounded=0;sketch=0;orthogonalLoop=1;jettySize=auto;html=1;entryX=0.5;entryY=0;entryDx=0;entryDy=0;shadow=0;fontSize=6;fontColor=#FF0829;strokeColor=#FF0818;" edge="1" parent="1" source="2izKIzFamONQcPFTqZWw-10" target="2izKIzFamONQcPFTqZWw-15">
          <mxGeometry relative="1" as="geometry" />
        </mxCell>
        <mxCell id="2izKIzFamONQcPFTqZWw-24" style="rounded=0;orthogonalLoop=1;jettySize=auto;html=1;entryX=0.544;entryY=0.044;entryDx=0;entryDy=0;entryPerimeter=0;fontSize=6;fontColor=#FF0829;" edge="1" parent="1" source="2izKIzFamONQcPFTqZWw-3" target="2izKIzFamONQcPFTqZWw-10">
          <mxGeometry relative="1" as="geometry" />
        </mxCell>
        <mxCell id="2izKIzFamONQcPFTqZWw-26" style="edgeStyle=none;rounded=0;orthogonalLoop=1;jettySize=auto;html=1;entryX=0.558;entryY=-0.104;entryDx=0;entryDy=0;entryPerimeter=0;fontSize=6;fontColor=#FF0829;" edge="1" parent="1" source="2izKIzFamONQcPFTqZWw-19" target="2izKIzFamONQcPFTqZWw-10">
          <mxGeometry relative="1" as="geometry" />
        </mxCell>
        <mxCell id="2izKIzFamONQcPFTqZWw-28" style="edgeStyle=none;rounded=0;orthogonalLoop=1;jettySize=auto;html=1;entryX=0.558;entryY=0.022;entryDx=0;entryDy=0;entryPerimeter=0;fontSize=6;fontColor=#FF0829;exitX=0.5;exitY=1;exitDx=0;exitDy=0;dashed=1;strokeColor=#FF0818;" edge="1" parent="1" source="2izKIzFamONQcPFTqZWw-22" target="2izKIzFamONQcPFTqZWw-10">
          <mxGeometry relative="1" as="geometry" />
        </mxCell>
        <mxCell id="2izKIzFamONQcPFTqZWw-29" style="edgeStyle=none;rounded=0;orthogonalLoop=1;jettySize=auto;html=1;entryX=0.615;entryY=-0.041;entryDx=0;entryDy=0;entryPerimeter=0;fontSize=6;fontColor=#FF0829;exitX=0.5;exitY=1;exitDx=0;exitDy=0;strokeColor=#FF0818;" edge="1" parent="1" source="2izKIzFamONQcPFTqZWw-18" target="2izKIzFamONQcPFTqZWw-10">
          <mxGeometry relative="1" as="geometry" />
        </mxCell>
        <mxCell id="2izKIzFamONQcPFTqZWw-43" style="edgeStyle=none;rounded=0;sketch=0;orthogonalLoop=1;jettySize=auto;html=1;entryX=0.5;entryY=0;entryDx=0;entryDy=0;shadow=0;fontSize=6;fontColor=#FF0829;" edge="1" parent="1" source="2izKIzFamONQcPFTqZWw-40" target="2izKIzFamONQcPFTqZWw-17">
          <mxGeometry relative="1" as="geometry" />
        </mxCell>
        <mxCell id="2izKIzFamONQcPFTqZWw-41" style="edgeStyle=none;rounded=0;sketch=0;orthogonalLoop=1;jettySize=auto;html=1;shadow=0;fontSize=6;fontColor=#FF0829;" edge="1" parent="1" source="2izKIzFamONQcPFTqZWw-21" target="2izKIzFamONQcPFTqZWw-40">
          <mxGeometry relative="1" as="geometry" />
        </mxCell>
        <mxCell id="2izKIzFamONQcPFTqZWw-42" style="edgeStyle=none;rounded=0;sketch=0;orthogonalLoop=1;jettySize=auto;html=1;shadow=0;fontSize=6;fontColor=#FF0829;entryX=0.5;entryY=0;entryDx=0;entryDy=0;dashed=1;" edge="1" parent="1" source="2izKIzFamONQcPFTqZWw-20" target="2izKIzFamONQcPFTqZWw-40">
          <mxGeometry relative="1" as="geometry">
            <mxPoint x="370" y="240" as="targetPoint" />
          </mxGeometry>
        </mxCell>
        <mxCell id="2izKIzFamONQcPFTqZWw-45" value="" style="swimlane;startSize=0;fontSize=6;fontColor=#FF0829;" vertex="1" parent="1">
          <mxGeometry x="170" y="110" width="720" height="120" as="geometry" />
        </mxCell>
        <mxCell id="2izKIzFamONQcPFTqZWw-46" value="&lt;font color=&quot;#050505&quot;&gt;订单系统&lt;/font&gt;" style="text;html=1;strokeColor=none;fillColor=none;align=center;verticalAlign=middle;whiteSpace=wrap;rounded=0;fontSize=6;fontColor=#FF0829;" vertex="1" parent="2izKIzFamONQcPFTqZWw-45">
          <mxGeometry x="17" y="20" width="60" height="30" as="geometry" />
        </mxCell>
        <mxCell id="2izKIzFamONQcPFTqZWw-49" value="目前授权相关订单未在同一系统" style="text;html=1;strokeColor=none;fillColor=none;align=center;verticalAlign=middle;whiteSpace=wrap;rounded=0;fontSize=6;fontColor=#050505;" vertex="1" parent="2izKIzFamONQcPFTqZWw-45">
          <mxGeometry x="20" y="60" width="100" height="30" as="geometry" />
        </mxCell>
        <mxCell id="2izKIzFamONQcPFTqZWw-54" value="虚线暂未实现" style="text;html=1;strokeColor=none;fillColor=none;align=center;verticalAlign=middle;whiteSpace=wrap;rounded=0;fontSize=6;fontColor=#050505;" vertex="1" parent="2izKIzFamONQcPFTqZWw-45">
          <mxGeometry x="597" y="45" width="93" height="15" as="geometry" />
        </mxCell>
        <mxCell id="2izKIzFamONQcPFTqZWw-10" value="&lt;span style=&quot;font-size: 13.3333px;&quot;&gt;销售订单&lt;/span&gt;" style="rounded=0;whiteSpace=wrap;html=1;" vertex="1" parent="2izKIzFamONQcPFTqZWw-45">
          <mxGeometry x="130" y="45" width="90" height="30" as="geometry" />
        </mxCell>
        <mxCell id="2izKIzFamONQcPFTqZWw-40" value="&lt;span style=&quot;font-size: 13.3333px;&quot;&gt;相关订单&lt;/span&gt;" style="rounded=0;whiteSpace=wrap;html=1;" vertex="1" parent="2izKIzFamONQcPFTqZWw-45">
          <mxGeometry x="280" y="45" width="90" height="30" as="geometry" />
        </mxCell>
        <mxCell id="2izKIzFamONQcPFTqZWw-61" value="&lt;span style=&quot;font-size: 13.3333px;&quot;&gt;订单明细项&lt;/span&gt;" style="rounded=0;whiteSpace=wrap;html=1;" vertex="1" parent="2izKIzFamONQcPFTqZWw-45">
          <mxGeometry x="430" y="45" width="90" height="30" as="geometry" />
        </mxCell>
        <mxCell id="2izKIzFamONQcPFTqZWw-47" value="" style="swimlane;startSize=0;fontSize=6;fontColor=#050505;" vertex="1" parent="1">
          <mxGeometry x="170" y="280" width="260" height="180" as="geometry" />
        </mxCell>
        <mxCell id="2izKIzFamONQcPFTqZWw-17" value="&lt;span style=&quot;font-size: 13.3333px;&quot;&gt;应用授权记录&lt;/span&gt;" style="rounded=0;whiteSpace=wrap;html=1;" vertex="1" parent="2izKIzFamONQcPFTqZWw-47">
          <mxGeometry x="130" y="80" width="90" height="30" as="geometry" />
        </mxCell>
        <mxCell id="2izKIzFamONQcPFTqZWw-48" value="应用中心" style="text;html=1;strokeColor=none;fillColor=none;align=center;verticalAlign=middle;whiteSpace=wrap;rounded=0;fontSize=6;fontColor=#050505;" vertex="1" parent="2izKIzFamONQcPFTqZWw-47">
          <mxGeometry x="10" width="60" height="30" as="geometry" />
        </mxCell>
        <mxCell id="2izKIzFamONQcPFTqZWw-57" value="应用管理" style="rounded=0;whiteSpace=wrap;html=1;fontSize=6;fontColor=#050505;" vertex="1" parent="2izKIzFamONQcPFTqZWw-47">
          <mxGeometry x="10" y="80" width="100" height="30" as="geometry" />
        </mxCell>
        <mxCell id="2izKIzFamONQcPFTqZWw-50" value="" style="swimlane;startSize=0;fontSize=6;fontColor=#050505;" vertex="1" parent="1">
          <mxGeometry x="440" y="280" width="450" height="180" as="geometry" />
        </mxCell>
        <mxCell id="2izKIzFamONQcPFTqZWw-51" value="boss系统" style="text;html=1;strokeColor=none;fillColor=none;align=center;verticalAlign=middle;whiteSpace=wrap;rounded=0;fontSize=6;fontColor=#050505;" vertex="1" parent="2izKIzFamONQcPFTqZWw-50">
          <mxGeometry width="60" height="30" as="geometry" />
        </mxCell>
        <mxCell id="2izKIzFamONQcPFTqZWw-52" value="收入、分润、订单管理" style="text;html=1;strokeColor=none;fillColor=none;align=center;verticalAlign=middle;whiteSpace=wrap;rounded=0;fontSize=6;fontColor=#050505;" vertex="1" parent="2izKIzFamONQcPFTqZWw-50">
          <mxGeometry x="10" y="60" width="80" height="20" as="geometry" />
        </mxCell>
        <mxCell id="2izKIzFamONQcPFTqZWw-70" style="edgeStyle=orthogonalEdgeStyle;rounded=0;sketch=0;orthogonalLoop=1;jettySize=auto;html=1;entryX=0.276;entryY=0;entryDx=0;entryDy=0;entryPerimeter=0;shadow=0;strokeColor=#FF0818;fontSize=6;fontColor=#050505;dashed=1;" edge="1" parent="2izKIzFamONQcPFTqZWw-50" source="2izKIzFamONQcPFTqZWw-15" target="2izKIzFamONQcPFTqZWw-69">
          <mxGeometry relative="1" as="geometry" />
        </mxCell>
        <mxCell id="2izKIzFamONQcPFTqZWw-15" value="公司收入" style="rounded=0;whiteSpace=wrap;html=1;" vertex="1" parent="2izKIzFamONQcPFTqZWw-50">
          <mxGeometry x="80" y="40" width="90" height="30" as="geometry" />
        </mxCell>
        <mxCell id="2izKIzFamONQcPFTqZWw-71" style="edgeStyle=orthogonalEdgeStyle;rounded=0;sketch=0;orthogonalLoop=1;jettySize=auto;html=1;exitX=1;exitY=0.5;exitDx=0;exitDy=0;entryX=1.008;entryY=0.588;entryDx=0;entryDy=0;entryPerimeter=0;shadow=0;strokeColor=#FF0818;fontSize=6;fontColor=#050505;dashed=1;" edge="1" parent="2izKIzFamONQcPFTqZWw-50" source="2izKIzFamONQcPFTqZWw-14" target="2izKIzFamONQcPFTqZWw-69">
          <mxGeometry relative="1" as="geometry">
            <Array as="points">
              <mxPoint x="430" y="25" />
              <mxPoint x="430" y="141" />
            </Array>
          </mxGeometry>
        </mxCell>
        <mxCell id="2izKIzFamONQcPFTqZWw-14" value="采购订单" style="rounded=0;whiteSpace=wrap;html=1;" vertex="1" parent="2izKIzFamONQcPFTqZWw-50">
          <mxGeometry x="260" y="10" width="90" height="30" as="geometry" />
        </mxCell>
        <mxCell id="2izKIzFamONQcPFTqZWw-34" style="edgeStyle=none;rounded=0;orthogonalLoop=1;jettySize=auto;html=1;entryX=0;entryY=0.5;entryDx=0;entryDy=0;fontSize=6;fontColor=#FF0829;exitX=1;exitY=0.5;exitDx=0;exitDy=0;shadow=0;dashed=1;strokeColor=#FF0818;" edge="1" parent="2izKIzFamONQcPFTqZWw-50" source="2izKIzFamONQcPFTqZWw-15" target="2izKIzFamONQcPFTqZWw-14">
          <mxGeometry relative="1" as="geometry" />
        </mxCell>
        <mxCell id="2izKIzFamONQcPFTqZWw-16" value="代理商分润" style="rounded=0;whiteSpace=wrap;html=1;" vertex="1" parent="2izKIzFamONQcPFTqZWw-50">
          <mxGeometry x="260" y="55" width="90" height="30" as="geometry" />
        </mxCell>
        <mxCell id="2izKIzFamONQcPFTqZWw-33" style="edgeStyle=none;rounded=0;orthogonalLoop=1;jettySize=auto;html=1;entryX=0;entryY=0.25;entryDx=0;entryDy=0;fontSize=6;fontColor=#FF0829;exitX=1;exitY=0.5;exitDx=0;exitDy=0;shadow=0;dashed=1;strokeColor=#FF0818;" edge="1" parent="2izKIzFamONQcPFTqZWw-50" source="2izKIzFamONQcPFTqZWw-15" target="2izKIzFamONQcPFTqZWw-16">
          <mxGeometry relative="1" as="geometry" />
        </mxCell>
        <mxCell id="2izKIzFamONQcPFTqZWw-65" value="代理商余额" style="rounded=0;whiteSpace=wrap;html=1;" vertex="1" parent="2izKIzFamONQcPFTqZWw-50">
          <mxGeometry x="50" y="120" width="90" height="30" as="geometry" />
        </mxCell>
        <mxCell id="2izKIzFamONQcPFTqZWw-66" value="收款单" style="rounded=0;whiteSpace=wrap;html=1;" vertex="1" parent="2izKIzFamONQcPFTqZWw-50">
          <mxGeometry x="160" y="120" width="90" height="30" as="geometry" />
        </mxCell>
        <mxCell id="2izKIzFamONQcPFTqZWw-67" value="多账户" style="rounded=0;whiteSpace=wrap;html=1;" vertex="1" parent="2izKIzFamONQcPFTqZWw-50">
          <mxGeometry x="270" y="120" width="90" height="30" as="geometry" />
        </mxCell>
        <mxCell id="2izKIzFamONQcPFTqZWw-69" value="" style="swimlane;startSize=0;fontSize=6;fontColor=#050505;" vertex="1" parent="2izKIzFamONQcPFTqZWw-50">
          <mxGeometry x="20" y="100" width="380" height="70" as="geometry" />
        </mxCell>
        <mxCell id="2izKIzFamONQcPFTqZWw-53" value="虚线为按需生成" style="text;html=1;strokeColor=none;fillColor=none;align=center;verticalAlign=middle;whiteSpace=wrap;rounded=0;fontSize=6;fontColor=#050505;" vertex="1" parent="2izKIzFamONQcPFTqZWw-50">
          <mxGeometry x="100" width="130" height="30" as="geometry" />
        </mxCell>
        <mxCell id="2izKIzFamONQcPFTqZWw-60" style="edgeStyle=orthogonalEdgeStyle;rounded=0;sketch=0;orthogonalLoop=1;jettySize=auto;html=1;entryX=0.5;entryY=1;entryDx=0;entryDy=0;shadow=0;strokeColor=#FF0818;fontSize=6;fontColor=#050505;" edge="1" parent="1" source="2izKIzFamONQcPFTqZWw-59" target="2izKIzFamONQcPFTqZWw-57">
          <mxGeometry relative="1" as="geometry" />
        </mxCell>
        <mxCell id="2izKIzFamONQcPFTqZWw-59" value="此期新增渠道价、结算方式字段" style="text;html=1;strokeColor=none;fillColor=none;align=center;verticalAlign=middle;whiteSpace=wrap;rounded=0;fontSize=6;fontColor=#050505;" vertex="1" parent="1">
          <mxGeometry x="140" y="500" width="180" height="30" as="geometry" />
        </mxCell>
      </root>
    </mxGraphModel>
  </diagram>
</mxfile>
